<?xml version="1.0" encoding="UTF-8" standalone="no"?> <svg width="512" height="512" viewBox="0 0 512 512" fill="none" xmlns="http://www.w3.org/2000/svg">
<path d="M503.69 493.801L484.94 428.171C480.56 412.766 472.05 398.853 460.333 387.935C448.615 377.018 434.136 369.512 418.46 366.231L320 345.511V333.241C330.975 326.894 340.287 318.033 347.171 307.387C354.055 296.741 358.315 284.613 359.6 272.001H364C371.424 271.993 378.541 269.04 383.79 263.791C389.039 258.542 391.992 251.424 392 244.001V220.001C391.995 214.707 390.489 209.523 387.657 205.05C384.825 200.578 380.783 197 376 194.731V168.001C376 165.879 375.157 163.844 373.657 162.344C372.157 160.844 370.122 160.001 368 160.001V103.181C378.06 92.909 383.784 79.1608 383.985 64.7844C384.186 50.4081 378.849 36.5052 369.08 25.9559C359.311 15.4067 345.859 9.01948 331.509 8.1175C317.16 7.21552 303.013 11.8679 292 21.1108C281.915 12.6428 269.168 8.00084 256 8.00084C242.832 8.00084 230.085 12.6428 220 21.1108C208.988 11.8617 194.839 7.20432 180.486 8.10387C166.133 9.00342 152.677 15.391 142.905 25.9426C133.134 36.4943 127.797 50.4011 128.001 64.7807C128.205 79.1604 133.934 92.9103 144 103.181V160.001C141.878 160.001 139.843 160.844 138.343 162.344C136.843 163.844 136 165.879 136 168.001V194.731C131.217 197 127.175 200.578 124.343 205.05C121.511 209.523 120.005 214.707 120 220.001V244.001C120.008 251.424 122.961 258.542 128.21 263.791C133.459 269.04 140.576 271.993 148 272.001H152.4C153.685 284.613 157.945 296.741 164.829 307.387C171.713 318.033 181.025 326.894 192 333.241V345.511L93.54 366.231C77.8645 369.512 63.3847 377.018 51.6671 387.935C39.9496 398.853 31.4403 412.766 27.06 428.171L8.31 493.801C7.96773 494.991 7.90694 496.245 8.13245 497.464C8.35795 498.682 8.86356 499.831 9.60936 500.82C10.3552 501.809 11.3207 502.612 12.4298 503.164C13.5389 503.716 14.7611 504.002 16 504.001H496C497.239 504.002 498.461 503.716 499.57 503.164C500.679 502.612 501.645 501.809 502.391 500.82C503.136 499.831 503.642 498.682 503.868 497.464C504.093 496.245 504.032 494.991 503.69 493.801V493.801ZM376 220.001V244.001C375.997 247.183 374.732 250.233 372.482 252.483C370.232 254.733 367.182 255.998 364 256.001H360V208.001H364C367.182 208.003 370.232 209.269 372.482 211.518C374.732 213.768 375.997 216.819 376 220.001V220.001ZM184 24.0008C189.675 24.0029 195.285 25.2122 200.458 27.5483C205.63 29.8845 210.246 33.2941 214 37.5508C214.751 38.4021 215.674 39.0838 216.708 39.5508C217.743 40.0178 218.865 40.2593 220 40.2593C221.135 40.2593 222.257 40.0178 223.292 39.5508C224.326 39.0838 225.249 38.4021 226 37.5508C229.752 33.2924 234.368 29.8816 239.541 27.5453C244.714 25.209 250.324 24.0006 256 24.0006C261.676 24.0006 267.287 25.209 272.459 27.5453C277.632 29.8816 282.248 33.2924 286 37.5508C286.751 38.4021 287.674 39.0838 288.708 39.5508C289.743 40.0178 290.865 40.2593 292 40.2593C293.135 40.2593 294.257 40.0178 295.292 39.5508C296.326 39.0838 297.249 38.4021 298 37.5508C301.603 33.4537 306.007 30.1371 310.94 27.805C315.872 25.4729 321.23 24.1746 326.683 23.9901C332.136 23.8055 337.57 24.7385 342.649 26.7317C347.728 28.725 352.346 31.7363 356.218 35.5804C360.09 39.4245 363.135 44.0202 365.165 49.0847C367.195 54.1493 368.167 59.5756 368.022 65.0299C367.877 70.4842 366.618 75.8512 364.322 80.8008C362.025 85.7504 358.741 90.1778 354.67 93.8108C353.829 94.5593 353.157 95.4774 352.696 96.5047C352.236 97.532 351.999 98.6451 352 99.7708V160.001H160V99.7708C160.001 98.6451 159.764 97.532 159.304 96.5047C158.843 95.4774 158.171 94.5593 157.33 93.8108C151.293 88.4096 147.039 81.3029 145.129 73.4309C143.219 65.5589 143.745 57.2926 146.635 49.7256C149.526 42.1587 154.646 35.6477 161.318 31.0542C167.99 26.4607 175.9 24.0011 184 24.0008V24.0008ZM152 256.001H148C144.818 255.998 141.768 254.733 139.518 252.483C137.268 250.233 136.003 247.183 136 244.001V220.001C136.003 216.819 137.268 213.768 139.518 211.518C141.768 209.269 144.818 208.003 148 208.001H152V256.001ZM152 184.001V176.001H360V184.001H152ZM168 264.001V200.001H344V264.001C343.981 280.969 337.232 297.236 325.234 309.235C313.236 321.233 296.968 327.982 280 328.001H232C215.032 327.982 198.764 321.233 186.766 309.235C174.768 297.236 168.019 280.969 168 264.001V264.001ZM304 340.321V349.051L256.5 388.231L208 348.231V340.321C215.765 342.766 223.859 344.008 232 344.001H280C288.141 344.008 296.235 342.766 304 340.321V340.321ZM208 432.001V488.001H112V464.001C112 461.879 111.157 459.844 109.657 458.344C108.157 456.844 106.122 456.001 104 456.001C101.878 456.001 99.8434 456.844 98.3431 458.344C96.8428 459.844 96 461.879 96 464.001V488.001H26.61L42.44 432.571C46.024 419.966 52.987 408.581 62.5755 399.648C72.1641 390.715 84.0129 384.574 96.84 381.891L197.88 360.621L243.93 398.601L210.91 425.831C210 426.581 209.267 427.523 208.764 428.59C208.261 429.657 208 430.821 208 432.001V432.001ZM416 488.001V464.001C416 461.879 415.157 459.844 413.657 458.344C412.157 456.844 410.122 456.001 408 456.001C405.878 456.001 403.843 456.844 402.343 458.344C400.843 459.844 400 461.879 400 464.001V488.001H224V435.771L314.92 360.791L415.16 381.891C427.987 384.574 439.836 390.715 449.424 399.648C459.013 408.581 465.976 419.966 469.56 432.571L485.39 488.001H416Z" fill="black"/>
<path d="M280 296C282.122 296 284.157 295.157 285.657 293.657C287.157 292.157 288 290.122 288 288C288 285.878 287.157 283.843 285.657 282.343C284.157 280.843 282.122 280 280 280H232C229.878 280 227.843 280.843 226.343 282.343C224.843 283.843 224 285.878 224 288C224 290.122 224.843 292.157 226.343 293.657C227.843 295.157 229.878 296 232 296H280Z" fill="black"/>
<path d="M208 240C216.837 240 224 232.837 224 224C224 215.163 216.837 208 208 208C199.163 208 192 215.163 192 224C192 232.837 199.163 240 208 240Z" fill="black"/>
<path d="M304 240C312.837 240 320 232.837 320 224C320 215.163 312.837 208 304 208C295.163 208 288 215.163 288 224C288 232.837 295.163 240 304 240Z" fill="black"/>
</svg>
